<?xml version="1.0" standalone="no"?>
<!DOCTYPE svg PUBLIC "-//W3C//DTD SVG 20010904//EN"
 "http://www.w3.org/TR/2001/REC-SVG-20010904/DTD/svg10.dtd">
<svg version="1.0" xmlns="http://www.w3.org/2000/svg"
 width="512.000000pt" height="512.000000pt" viewBox="0 0 512.000000 512.000000"
 preserveAspectRatio="xMidYMid meet">
<metadata>
Created by potrace 1.14, written by Peter Selinger 2001-2017
</metadata>
<g transform="translate(0.000000,512.000000) scale(0.100000,-0.100000)"
fill="#000000" stroke="none">
<path d="M0 2560 l0 -2560 2560 0 2560 0 0 2560 0 2560 -2560 0 -2560 0 0
-2560z m1480 708 c23 -90 55 -210 70 -268 15 -58 54 -204 85 -325 69 -270 64
-254 75 -235 4 8 60 220 124 470 65 250 122 470 127 488 l11 32 288 0 288 0 9
-42 c5 -24 49 -243 98 -488 49 -245 91 -447 92 -449 2 -2 5 -2 8 1 3 2 49 223
103 489 l97 484 277 3 278 2 5 -22 c3 -13 25 -120 50 -238 25 -118 63 -296 85
-395 21 -99 44 -209 51 -245 6 -36 15 -69 20 -74 9 -11 12 0 43 169 13 72 47
252 76 400 28 149 57 299 63 335 l12 65 278 3 c236 2 277 0 277 -12 0 -8 -13
-70 -29 -138 -30 -122 -82 -343 -160 -678 -54 -232 -130 -558 -176 -752 l-37
-158 -309 0 -309 0 -5 23 c-10 44 -140 657 -190 897 -15 69 -30 128 -34 133
-4 4 -12 -19 -19 -50 -6 -32 -38 -186 -72 -343 -33 -157 -74 -348 -90 -425
-15 -77 -34 -161 -40 -187 l-12 -48 -309 0 c-170 0 -309 2 -309 4 0 3 -29 130
-65 283 -36 153 -84 357 -106 453 -50 214 -49 212 -59 180 -11 -36 -221 -804
-240 -878 l-11 -42 -221 2 -220 3 -38 135 c-21 74 -61 221 -90 325 -29 105
-69 252 -91 327 -21 75 -41 153 -45 172 -19 104 -24 8 -24 -458 l0 -506 -255
0 -255 0 0 870 0 870 393 0 394 0 43 -162z"/>
</g>
</svg>
